<svg width="100" height="47" viewBox="0 0 100 47" xmlns="http://www.w3.org/2000/svg">
  <path d="M98.387 33.502v-4.12a50.176 50.176 0 00-4.08-19.877 5.027 5.027 0 00-4.628-3.053 5.058 5.058 0 00-4.842 3.653l-.856 2.997a6.426 6.426 0 01-6.152 4.64c-1.847 0-3.6-.797-4.814-2.184l-3.617-4.132 1.304-3.905a5.331 5.331 0 00.266-1.658v-.621A5.248 5.248 0 0065.726 0a5.264 5.264 0 00-3.144 1.048L57.43 4.913a16.345 16.345 0 00-1.379-.074 16.69 16.69 0 00-9.04 2.655l-8.625 5.545a58.56 58.56 0 01-21.604 8.453l-8.523 1.505A9.98 9.98 0 000 32.839c0 4.187 2.645 7.961 6.579 9.392a75.173 75.173 0 0025.782 4.543h62.8A4.845 4.845 0 00100 41.935v-1.232c0-2.477-.556-4.958-1.613-7.201zM77.83 20.968c4.273 0 8.08-2.87 9.253-6.98l.857-2.998a1.817 1.817 0 011.74-1.313c.724 0 1.377.431 1.663 1.099a46.963 46.963 0 013.82 18.606v3.049c-3.757.404-14.609 1.44-27.42 1.44-.253 0-.474.008-.721.01l-9.684-15.218a15.82 15.82 0 006.53-8.089c.85.603 1.638 1.3 2.336 2.099l4.384 5.008a9.619 9.619 0 007.242 3.287zm-29.927 14.89l-7.018-11.227 5.23-1.744 7.963 11.944c-1.577.234-3.062.487-4.519.74-.553.098-1.103.194-1.656.287zm9.748-1.484l-8.363-12.543 4.711-1.571c.146-.049.278-.12.42-.173l8.834 13.882a86.713 86.713 0 00-5.602.405zM64.518 3.63c.347-.26.774-.403 1.208-.403 1.111 0 2.016.905 2.016 2.016v.62c0 .219-.034.435-.102.64l-.779 2.333a16.672 16.672 0 00-5.248-3.029l2.905-2.177zM40.13 15.752l8.624-5.546a13.47 13.47 0 017.295-2.141c1.708 0 3.374.341 4.929.953-1.195 3.822-4.153 6.9-8 8.182L33.85 23.576a12.07 12.07 0 01-8.27-.242l-1.014-.407a61.807 61.807 0 0015.565-7.175zM8.819 26.172l8.523-1.504c.645-.113 1.28-.255 1.92-.387l5.12 2.048c1.81.723 3.715 1.09 5.663 1.09a15.23 15.23 0 004.823-.782l2.87-.956 6.7 10.719c-2.956.408-6.24.697-10.567.697-11.844 0-26.113-4.466-30.416-5.91.637-2.535 2.685-4.542 5.364-5.014zm87.955 15.763c0 .89-.722 1.613-1.613 1.613h-62.8a72.039 72.039 0 01-24.68-4.346c-2.097-.763-3.637-2.513-4.205-4.604 5.39 1.765 18.774 5.725 30.395 5.725 7.206 0 11.798-.8 16.24-1.575 4.668-.81 9.494-1.651 17.63-1.651 13.26 0 24.457-1.097 28.027-1.487a13.742 13.742 0 011.006 5.093v1.232z"/>
  <circle cx="53.226" cy="12.903" r="1.613"/>
  <circle cx="45.161" cy="16.129" r="1.613"/>
</svg>
