<svg width="130.6" height="25" viewBox="0 0 130.6 25" xmlns="http://www.w3.org/2000/svg">
  <path d="M53.8 19.5c1-.8 1.6-1.9 1.9-3.2h-.1c-.4.7-.9 1.2-1.6 1.6-.7.4-1.5.6-2.5.6-1.5 0-2.5-.5-3.2-1.4-.6-.9-.9-2.3-.9-4V13h8.3v-.7c0-1.1-.2-2.1-.7-3-.5-.9-1.1-1.5-2-2-.9-.5-2-.7-3.2-.7-1.4 0-2.6.3-3.6.9-1 .6-1.8 1.5-2.3 2.5-.5 1.1-.8 2.3-.8 3.7 0 1.4.3 2.6.8 3.7s1.3 1.9 2.3 2.5c1 .6 2.2.9 3.6.9 1.7-.1 3-.5 4-1.3M48 7.7c.3-.7.9-1.1 1.8-1.1.8 0 1.3.3 1.6.9s.4 1.5.4 2.7v2.2h-4.3V11c0-1.4.2-2.6.5-3.3m14.2 1.5l-.1-2.5h-5.3c.4.4.6.7.8.9.2.2.3.5.3.7.1.3.1.6.1.9v8.9c0 .5-.1.8-.2 1.1-.2.3-.5.7-.9 1.2h6.6c-.4-.3-.6-.6-.8-.8s-.3-.4-.4-.6c-.1-.2-.1-.5-.1-.8V9.4c.1-.1.3-.2.4-.2.2-.1.4-.1.6-.1.4 0 .9.1 1.5.3.6.2 1.5.6 2.7 1.1V6.9c-.2-.2-.4-.3-.7-.4-.3-.1-.6-.1-.9-.1-.6 0-1.3.2-1.9.7-.6.4-1.2 1.2-1.7 2.1m12 10c-.2-.3-.2-.7-.2-1.1V6.7h-5.4c.4.4.6.7.8.9.2.2.3.5.3.7.1.2.1.5.1.9v8.9c0 .5-.1.8-.2 1.1-.2.3-.5.7-.9 1.2h6.6c-.7-.5-1-.9-1.1-1.2m12.3.3c1-.8 1.6-1.9 1.9-3.2h-.1c-.4.7-.9 1.2-1.6 1.6-.7.4-1.5.6-2.5.6-1.5 0-2.5-.5-3.2-1.4-.6-.9-.9-2.3-.9-4V13h8.3v-.7c0-1.1-.2-2.1-.7-3s-1.1-1.5-2-2c-.9-.5-2-.7-3.2-.7-1.4 0-2.6.3-3.6.9-1 .6-1.8 1.5-2.3 2.5-.5 1.1-.8 2.3-.8 3.7 0 1.4.3 2.6.8 3.7s1.3 1.9 2.3 2.5c1 .6 2.2.9 3.6.9 1.7-.1 3-.5 4-1.3M80.6 7.7c.4-.7 1-1.1 1.8-1.1s1.3.3 1.6.9c.3.6.4 1.5.4 2.7v2.2h-4.3V11c0-1.4.2-2.6.5-3.3m22.9 11.5c-.2-.3-.2-.7-.2-1.1v-7.5c0-1.3-.4-2.4-1.1-3.1-.7-.7-1.7-1.1-3.1-1.1-.9 0-1.8.2-2.4.6-.7.4-1.2 1-1.6 1.6L95 6.7h-5.3c.4.4.6.7.8.9.2.2.3.5.3.7.1.2.1.5.1.9v8.9c0 .5-.1.8-.2 1.1-.2.3-.5.7-.9 1.2h6.5c-.4-.5-.7-.9-.9-1.2s-.2-.7-.2-1.1V8.9c.6-.6 1.3-.8 2-.8s1.2.2 1.5.6.5.9.5 1.6v7.8c0 .5-.1.9-.2 1.1-.1.3-.4.7-.9 1.2h6.5c-.6-.5-.9-.9-1.1-1.2m13.2-9.8V6.9c-.7-.2-1.5-.3-2.3-.4-.8-.1-1.5-.1-2.1-.1-1.5 0-2.8.3-3.8.9-1 .6-1.8 1.4-2.4 2.5-.5 1.1-.8 2.3-.8 3.8 0 1.4.2 2.6.7 3.7.5 1.1 1.2 1.9 2.1 2.5.9.6 2.1.9 3.4.9 1 0 1.9-.2 2.6-.5.8-.4 1.4-.9 1.9-1.5.5-.7.8-1.4.9-2.3-.7 1.4-2 2-3.7 2-.9 0-1.7-.2-2.2-.7s-.9-1.1-1.2-2c-.2-.9-.3-2-.3-3.5 0-1.4.1-2.5.2-3.3.2-.8.4-1.4.8-1.8.4-.4.8-.6 1.4-.6.3 0 .6.1 1 .2.3.1.8.4 1.3.8.5.5 1.4 1.1 2.5 1.9m11.9 10.1c1-.8 1.6-1.9 1.9-3.2h-.1c-.4.7-.9 1.2-1.6 1.6-.7.4-1.5.6-2.5.6-1.5 0-2.5-.5-3.2-1.4-.6-.9-.9-2.3-.9-4V13h8.3v-.7c0-1.1-.2-2.1-.7-3-.5-.9-1.1-1.5-2-2-.9-.5-2-.7-3.2-.7-1.4 0-2.6.3-3.6.9-1 .6-1.8 1.5-2.3 2.5-.5 1.1-.8 2.3-.8 3.7 0 1.4.3 2.6.8 3.7s1.3 1.9 2.3 2.5c1 .6 2.2.9 3.6.9 1.7-.1 3-.5 4-1.3m-5.9-11.8c.3-.7.9-1.1 1.8-1.1.8 0 1.3.3 1.6.9.3.6.4 1.5.4 2.7v2.2h-4.3V11c0-1.4.2-2.6.5-3.3M10.6 19.5c1-.8 1.6-1.9 1.9-3.2h-.1c-.4.7-.9 1.2-1.6 1.6-.7.4-1.5.6-2.5.6-1.5 0-2.5-.5-3.2-1.4-.6-.9-.9-2.3-.9-4V13h8.3v-.7c0-1.1-.2-2.1-.7-3-.5-.9-1.1-1.5-2-2-.8-.6-1.9-.8-3.1-.8-1.4 0-2.6.3-3.6.9C2.1 8 1.3 8.8.8 9.9.3 11 0 12.2 0 13.6c0 1.4.3 2.6.8 3.7S2 19.2 3 19.8s2.2.9 3.6.9c1.7 0 3-.4 4-1.2zM4.7 7.7c.4-.7.9-1.1 1.8-1.1.8 0 1.3.3 1.6.9.2.6.4 1.5.4 2.7v2.2H4.2V11c0-1.4.2-2.5.5-3.3zm15.4 12.7h6.8c-.5-.5-.9-1-1.2-1.5-.3-.4-.7-1-1.1-1.7l-2.9-4.8 1.7-2.3c.5-.6.9-1.2 1.3-1.6.4-.4 1.1-1 1.9-1.8h-4.2c.5.5.8.8 1 1.1.2.3.3.6.3.9 0 .2-.1.3-.2.5s-.3.3-.5.7L21.4 12l-1.8-2.9c-.2-.2-.3-.5-.3-.6-.1-.2-.1-.4-.1-.5 0-.4.2-.8.6-1.2H13c.5.6.9 1.1 1.2 1.5.3.4.7 1 1.1 1.7l2.7 4.5-1.9 2.5c-.5.6-.9 1.1-1.3 1.6-.4.4-1.1 1-2 1.8H17c-.5-.5-.8-.8-1-1.1-.2-.3-.2-.4-.2-.7 0-.2 0-.4.1-.6.1-.2.3-.4.5-.8l1.8-2.4 2 3.2c.2.3.3.5.3.6.1.2.1.4.1.5.1.5-.1.9-.5 1.3zM39.2 7.3c-.8-.6-1.7-.8-2.7-.8-1.5 0-2.7.6-3.8 1.9l-.1-1.6h-5.3c.4.4.6.6.8.9.2.2.3.5.3.7.1.2.1.5.1.9v13.4c0 .3 0 .6-.1.8-.1.2-.2.4-.3.7-.2.2-.4.5-.8.8h6.6c-.5-.5-.8-.9-.9-1.2-.2-.3-.2-.7-.2-1.1v-2.4c.7.3 1.4.4 2.2.4 1.3 0 2.5-.3 3.5-.9 1-.6 1.8-1.5 2.4-2.6.6-1.1.8-2.5.8-4 0-1.3-.2-2.5-.6-3.5-.5-1.1-1.1-1.8-1.9-2.4zm-3.3 12.4c-.4.4-1 .5-1.7.5-.5 0-1-.1-1.5-.3V8.7c.6-.5 1.2-.7 1.9-.7.6 0 1.1.2 1.5.6.4.4.6 1.1.8 1.9.2.9.2 1.8.2 3.3 0 1.7-.1 2.9-.3 3.9-.2 1-.5 1.6-.9 2zM71.8 4.6c1.3 0 2.4-1 2.4-2.3S73.2 0 71.8 0s-2.4 1-2.4 2.3 1.1 2.3 2.4 2.3"/>
</svg>
