<svg width="101" height="85" viewBox="0 0 101 85" xmlns="http://www.w3.org/2000/svg"><path d="M2.492.489a1.536 1.536 0 0 0-1.268.925C-.085 4.355.464 7.334.95 9.948c.487 2.614.905 4.925.24 6.82a1.539 1.539 0 1 0 2.913.995c1.027-2.93.341-5.795-.137-8.363-.478-2.568-.79-4.789.069-6.718A1.536 1.536 0 0 0 2.492.49zm6.58 0a1.536 1.536 0 0 0-1.267.925c-1.31 2.941-.761 5.92-.274 8.534.486 2.614.904 4.925.24 6.82a1.539 1.539 0 1 0 2.913.995c1.027-2.93.34-5.795-.137-8.363-.479-2.568-.79-4.789.068-6.718A1.536 1.536 0 0 0 9.073.49zm80.062 1.988a1.536 1.536 0 0 0-1.268.925c-1.309 2.941-.76 5.92-.274 8.534.487 2.614.905 4.89.24 6.786a1.545 1.545 0 1 0 2.913 1.028c1.027-2.928.341-5.794-.137-8.362-.478-2.569-.79-4.789.068-6.718a1.536 1.536 0 0 0-1.542-2.193zm6.58 0a1.536 1.536 0 0 0-1.268.925c-1.309 2.941-.76 5.92-.274 8.534.487 2.614.905 4.89.24 6.786a1.545 1.545 0 1 0 2.913 1.028c1.028-2.928.342-5.794-.137-8.362-.478-2.569-.79-4.789.069-6.718a1.536 1.536 0 0 0-1.542-2.193zM2.87 25.85c-.799.068-1.411.74-1.405 1.542v56.002a1.536 1.536 0 0 0 1.542 1.542h47.297c.079.018.16.03.24.034h48.325a1.536 1.536 0 0 0 1.542-1.542V27.393a1.536 1.536 0 0 0-1.542-1.508h-10.35a1.536 1.536 0 0 0-1.543 1.508v24.985l-16.52-12.201a1.536 1.536 0 0 0-2.467 1.233l-.069 10.796-15.834-12.03v-.033a1.536 1.536 0 0 0-.205-.137 1.536 1.536 0 0 0-.137-.103 1.535 1.535 0 0 0-.035-.034 1.536 1.536 0 0 0-.137-.069 1.536 1.536 0 0 0-.103-.034h-.034a1.536 1.536 0 0 0-.103-.034 1.536 1.536 0 0 0-.068-.035h-.137a1.536 1.536 0 0 0-.309 0 1.535 1.535 0 0 0-.103 0c-.069.007-.138.019-.205.035-.023.01-.046.022-.069.034-.023.01-.046.022-.068.034-.047.02-.093.043-.137.069-.024.01-.046.022-.069.034-.023.01-.046.022-.069.034-.023.01-.046.022-.068.034a1.536 1.536 0 0 0-.274.24L33.886 52.275V41.376a1.536 1.536 0 0 0-2.467-1.234l-16.52 12.202V27.393a1.536 1.536 0 0 0-1.542-1.542H3.007a2.047 2.047 0 0 0-.138 0zm1.68 3.084h7.266v6.718H4.549v-6.718zm85.51 0h7.266v6.718H90.06v-6.718zM4.55 38.703h7.266v16.691a1.536 1.536 0 0 0 2.467 1.234l16.52-12.201v10.967a1.536 1.536 0 0 0 2.467 1.234l17.685-13.47 17.548 13.367a1.536 1.536 0 0 0 2.468-1.234l.068-10.864 16.554 12.235a1.536 1.536 0 0 0 2.468-1.234V38.703h7.265v43.184H56.541v-19.81a1.536 1.536 0 0 0-1.543-1.542h-6.1a1.536 1.536 0 0 0-.172 0 1.536 1.536 0 0 0-1.37 1.542v19.81H4.549V38.703zM31.727 62.42a1.536 1.536 0 0 0-1.37 1.542v7.369a1.536 1.536 0 0 0 1.542 1.542h9.185a1.536 1.536 0 0 0 1.542-1.542v-7.369a1.536 1.536 0 0 0-1.542-1.542h-9.185a1.536 1.536 0 0 0-.172 0zm29.2 0c-.799.068-1.41.74-1.405 1.542v7.369a1.536 1.536 0 0 0 1.543 1.542h9.22a1.536 1.536 0 0 0 1.507-1.542v-7.369a1.536 1.536 0 0 0-1.508-1.542h-9.22a1.536 1.536 0 0 0-.136 0zm16.075 0c-.8.068-1.412.74-1.406 1.542v7.369a1.536 1.536 0 0 0 1.543 1.542h9.185a1.536 1.536 0 0 0 1.542-1.542v-7.369a1.536 1.536 0 0 0-1.542-1.542h-9.185a1.536 1.536 0 0 0-.137 0zm-61.452.274a1.536 1.536 0 0 0-1.37 1.542v7.37c.015.84.702 1.511 1.542 1.507h9.185a1.536 1.536 0 0 0 1.542-1.508v-7.369a1.536 1.536 0 0 0-1.542-1.542h-9.185a1.536 1.536 0 0 0-.172 0zm34.89.891h3.016V81.51H50.44V63.585zm-17.033 1.92h6.134v4.284h-6.134v-4.284zm29.2 0h6.135v4.284h-6.135v-4.284zm16.074 0h6.135v4.284H78.68v-4.284zm-61.451.24h6.135v4.318H17.23v-4.319z"/></svg>
