<svg width="97" height="99" viewBox="0 0 97 99" xmlns="http://www.w3.org/2000/svg">
  <circle cx="9.091" cy="12.5" r="2.597"/>
  <circle cx="14.746" cy="41.883" r="2.597"/>
  <circle cx="26.055" cy="41.883" r="2.597"/>
  <circle cx="37.365" cy="41.883" r="2.597"/>
  <circle cx="48.674" cy="41.883" r="2.597"/>
  <circle cx="59.984" cy="41.883" r="2.597"/>
  <circle cx="82.603" cy="41.883" r="2.597"/>
  <circle cx="93.912" cy="41.883" r="2.597"/>
  <circle cx="76.948" cy="51.677" r="2.597"/>
  <circle cx="88.258" cy="51.677" r="2.597"/>
  <circle cx="31.71" cy="32.089" r="2.597"/>
  <circle cx="43.019" cy="32.089" r="2.597"/>
  <circle cx="43.019" cy="51.677" r="2.597"/>
  <circle cx="54.329" cy="32.089" r="2.597"/>
  <circle cx="65.639" cy="32.089" r="2.597"/>
  <circle cx="65.639" cy="51.677" r="2.597"/>
  <circle cx="76.948" cy="32.089" r="2.597"/>
  <circle cx="76.948" cy="12.5" r="2.597"/>
  <circle cx="3.436" cy="22.294" r="2.597"/>
  <circle cx="48.674" cy="2.706" r="2.597"/>
  <circle cx="59.984" cy="2.706" r="2.597"/>
  <circle cx="20.4" cy="12.5" r="2.597"/>
  <circle cx="31.71" cy="12.5" r="2.597"/>
  <circle cx="43.019" cy="12.5" r="2.597"/>
  <circle cx="54.329" cy="12.5" r="2.597"/>
  <circle cx="65.639" cy="12.5" r="2.597"/>
  <circle cx="88.258" cy="12.5" r="2.597"/>
  <circle cx="14.746" cy="22.294" r="2.597"/>
  <circle cx="26.163" cy="22.294" r="2.597"/>
  <circle cx="26.163" cy="2.706" r="2.597"/>
  <circle cx="37.365" cy="22.294" r="2.597"/>
  <circle cx="48.566" cy="22.294" r="2.597"/>
  <circle cx="59.767" cy="22.294" r="2.597"/>
  <circle cx="70.969" cy="22.294" r="2.597"/>
  <circle cx="70.969" cy="41.883" r="2.597"/>
  <circle cx="48.674" cy="61.472" r="2.597"/>
  <circle cx="82.17" cy="22.294" r="2.597"/>
  <circle cx="93.371" cy="22.294" r="2.597"/>
  <circle cx="20.4" cy="32.089" r="2.597"/>
  <circle cx="9.091" cy="32.089" r="2.597"/>
  <circle cx="9.091" cy="51.677" r="2.597"/>
  <circle cx="20.4" cy="51.677" r="2.597"/>
  <path d="M68.831 98.772h25.974V61.11H68.831v37.662zm15.585-32.156h5.194v5.195h-5.194v-5.195zm0 10.078h5.194v5.195h-5.194v-5.195zm-10.39-10.078h5.195v5.195h-5.195v-5.195zm0 10.078h5.195v5.195h-5.195v-5.195zM6.494 98.772h25.974V61.11H6.494v37.662zm15.584-32.156h5.195v5.195h-5.195v-5.195zm0 10.078h5.195v5.195h-5.195v-5.195zm-10.39-10.078h5.195v5.195h-5.195v-5.195zm0 10.078h5.195v5.195h-5.195v-5.195zM38.297 98.772h25.975V70.2H38.297v28.572zm15.585-22.078h5.195v5.195h-5.195v-5.195zm-10.39 0h5.195v5.195h-5.195v-5.195z"/>
</svg>
