<svg width="100" height="73" viewBox="0 0 100 73" xmlns="http://www.w3.org/2000/svg">
  <path d="M34.09 72.727H13.637a2.28 2.28 0 0 1-2.272-2.272 2.28 2.28 0 0 1 2.272-2.273h20.455a2.28 2.28 0 0 1 2.273 2.273 2.28 2.28 0 0 1-2.273 2.272zM81.818 72.727H45.455a2.28 2.28 0 0 1-2.273-2.272 2.28 2.28 0 0 1 2.273-2.273h36.363a2.28 2.28 0 0 1 2.273 2.273 2.28 2.28 0 0 1-2.273 2.272zM81.818 45.455H61.364a2.28 2.28 0 0 1-2.273-2.273 2.28 2.28 0 0 1 2.273-2.273h20.454a2.28 2.28 0 0 1 2.273 2.273 2.28 2.28 0 0 1-2.273 2.273z"/>
  <path d="M81.818 59.09H13.636a2.28 2.28 0 0 1-2.272-2.272 2.28 2.28 0 0 1 2.272-2.273h68.182c7.523 0 13.637-6.113 13.637-13.636 0-7.523-6.114-13.636-13.637-13.636-.386 0-.75.022-1.136.068l-1.841.159-.523-1.773C74.636 13.25 63 4.545 50 4.545c-11.34 0-21.818 6.637-26.682 16.932l-.659 1.364-1.864-.091c-.09-.023-.227-.023-.34-.023-8.773 0-15.91 7.137-15.91 15.91 0 .772.046 1.522.16 2.272H50a2.28 2.28 0 0 1 2.273 2.273A2.28 2.28 0 0 1 50 45.455H1.09L.66 43.75A20.36 20.36 0 0 1 0 38.636C0 27.546 8.864 18.5 19.886 18.182 25.75 7.09 37.432 0 50 0c14.386 0 27.364 9.25 32.136 22.727 9.887.16 17.864 8.25 17.864 18.182 0 10.023-8.16 18.182-18.182 18.182z"/>
</svg>
