<svg width="75" height="100" viewBox="0 0 75 100" xmlns="http://www.w3.org/2000/svg"><path d="M37.5 0c-7.941 0-14.404 6.406-14.56 14.31C14.015 15.428 7.03 22.99 7.03 32.209c0 2.427.623 4.67 1.492 6.782C3.43 42.588 0 48.403 0 55.112 0 66.09 8.908 74.998 19.886 74.998h15.34v13.636a2.273 2.273 0 1 0 4.546 0V74.998h15.34c10.978 0 19.886-8.908 19.886-19.886 0-6.71-3.431-12.524-8.522-16.122.868-2.113 1.491-4.355 1.491-6.782 0-9.22-6.983-16.781-15.909-17.897C51.902 6.406 45.44 0 37.5 0zm0 4.545a10.01 10.01 0 0 1 9.942 11.47 2.273 2.273 0 0 0 2.273 2.592h.106c7.527 0 13.6 6.074 13.6 13.601 0 2.34-.624 4.5-1.668 6.427h.035a22.73 22.73 0 0 0-.142.249s.002.03 0 .035c-.027.07-.05.141-.07.214a3.764 3.764 0 0 1-.036.106s-.02.13-.036.249c-.002.013.001.026 0 .035v.036a11.358 11.358 0 0 0 0 .249v.035c.03.78.46 1.492 1.136 1.882a15.318 15.318 0 0 1 7.813 13.387c0 8.538-6.803 15.34-15.34 15.34H39.771v-9.73c2.343-5.78 6.486-9.93 11.186-12.073a2.288 2.288 0 1 0-1.918-4.154c-3.529 1.609-6.686 4.16-9.268 7.421V41.547c2.007-3.339 4.88-6.35 7.777-7.67a2.288 2.288 0 1 0-1.918-4.155c-2.271 1.036-4.172 2.69-5.86 4.581v-10.44a2.273 2.273 0 1 0-4.545 0v10.44c-1.687-1.892-3.588-3.545-5.859-4.58a2.273 2.273 0 0 0-1.136-.214 2.273 2.273 0 0 0-.781 4.368c2.895 1.32 5.769 4.331 7.776 7.67v10.37c-2.582-3.262-5.739-5.813-9.268-7.422a2.273 2.273 0 0 0-1.136-.213 2.273 2.273 0 0 0-.781 4.367c4.7 2.143 8.842 6.293 11.185 12.074v9.73h-15.34c-8.538 0-15.34-6.803-15.34-15.34a15.318 15.318 0 0 1 7.812-13.388 2.273 2.273 0 0 0 1.136-1.705.63.63 0 0 1 0-.142v-.035-.036-.142s.011-.089 0-.177a2.273 2.273 0 0 0 0-.142c-.003-.017-.033-.023-.036-.036a2.272 2.272 0 0 0 0-.07c0-.001-.04-.082-.07-.178-.005-.016.004-.022 0-.036-.006-.016.004-.021 0-.036a2.273 2.273 0 0 0-.036-.106 2.273 2.273 0 0 0-.071-.107 2.273 2.273 0 0 0-.036-.07c-.007-.013.008-.023 0-.036v-.036c-1.044-1.927-1.669-4.087-1.669-6.427 0-7.527 6.074-13.6 13.6-13.6h.107a2.273 2.273 0 0 0 2.273-2.593A10.01 10.01 0 0 1 37.5 4.545zM25.922 95.452a2.275 2.275 0 1 0 .213 4.545h22.726a2.273 2.273 0 1 0 0-4.545H26.136a2.273 2.273 0 0 0-.213 0z" /></svg>
