<svg width="100" height="100" viewBox="0 0 100 100" xmlns="http://www.w3.org/2000/svg"><path d="M36.458 74.83l3.397-4.25 2.633 2.106-3.396 4.249zM48.845 50.647v8.117h3.37v-8.117c2.296 2.47 5.56 4.025 9.188 4.025v-3.37c-5.066 0-9.187-4.122-9.187-9.188V37.17c2.295 2.469 5.559 4.025 9.187 4.025v-3.37c-5.066 0-9.187-4.122-9.187-9.188h-3.37c0 5.066-4.122 9.187-9.188 9.187v3.37c3.628 0 6.892-1.555 9.187-4.024v4.944c0 5.066-4.121 9.187-9.187 9.187v3.371c3.628 0 6.892-1.556 9.187-4.025zM69.166 26.594c.4 0 .802-.017 1.206-.051 6.75-.576 12.128-6.117 12.51-12.89.324-5.773-3.03-11.167-8.348-13.42a2.938 2.938 0 0 0-3.388.81 2.938 2.938 0 0 0-.269 3.475v.001a7.68 7.68 0 0 1 1.155 4.533c-.21 3.74-3.173 6.85-6.89 7.233a7.73 7.73 0 0 1-3.991-.641 2.972 2.972 0 0 0-3.453.72 2.932 2.932 0 0 0-.348 3.463c2.5 4.247 6.95 6.768 11.816 6.767zm-3.68-6.956c5.348-.55 9.61-5.02 9.912-10.396a11.057 11.057 0 0 0-1.018-5.325 10.396 10.396 0 0 1 5.136 9.547c-.287 5.108-4.342 9.287-9.43 9.72-3.598.305-6.98-1.21-9.116-4.005 1.446.458 2.988.618 4.515.46z"/><path d="M94.581 95.95l.063-.05-4.489-5.54V64.155c2.295 2.469 5.56 4.025 9.188 4.025v-3.37c-5.066 0-9.188-4.122-9.188-9.188v-4.975c2.295 2.47 5.56 4.025 9.188 4.025v-3.37c-5.066 0-9.188-4.122-9.188-9.188V37.17c2.295 2.469 5.56 4.025 9.188 4.025v-3.37c-5.066 0-9.188-4.122-9.188-9.188h-3.37c0 5.066-4.122 9.187-9.188 9.187v3.37c3.629 0 6.893-1.555 9.188-4.024v4.944c0 5.066-4.122 9.187-9.188 9.187v3.371c3.629 0 6.893-1.556 9.188-4.025v4.975c0 5.066-4.122 9.187-9.188 9.187v3.371c3.629 0 6.893-1.556 9.188-4.025v22.044L68.89 64.113a5.034 5.034 0 0 0-3.927-1.873h-.001c-.037 0-.072.005-.108.006v-.006H32.966a5.034 5.034 0 0 0-3.928 1.873l-11.39 14.06v-25.84c2.294 2.468 5.558 4.025 9.187 4.025v-3.371c-5.066 0-9.188-4.121-9.188-9.188v-4.944c2.295 2.47 5.56 4.025 9.188 4.025v-3.37c-5.066 0-9.188-4.122-9.188-9.188v-4.975c2.295 2.47 5.56 4.025 9.188 4.025v-3.37c-5.066 0-9.188-4.122-9.188-9.188V11.9c2.295 2.47 5.56 4.025 9.188 4.025v-3.37c-5.066 0-9.188-4.122-9.188-9.188h-3.37c0 5.066-4.122 9.188-9.188 9.188v3.37c3.629 0 6.893-1.556 9.187-4.025v4.914c0 5.066-4.12 9.188-9.187 9.188v3.37c3.629 0 6.893-1.556 9.187-4.025v4.975c0 5.066-4.12 9.187-9.187 9.187v3.371c3.629 0 6.893-1.556 9.187-4.025V43.8c0 5.067-4.12 9.188-9.187 9.188v3.37c3.629 0 6.893-1.556 9.187-4.025v30.002L3.246 95.95H0v3.37h99.438v-3.37h-4.857zm-4.234 0h-9.379V84.374l9.379 11.576zm-12.75-15.737V95.95H52.301V80.237l10.963-13.523v19.044h3.37V66.683l10.963 13.53zM48.93 95.95H39.56l9.369-11.555V95.95zM31.656 66.235c.322-.397.8-.624 1.31-.624H59.82L35.222 95.95H23.739l11.556-14.267-2.62-2.121L19.403 95.95H7.583l24.073-29.715z"/></svg>
