<svg width="100" height="102" viewBox="0 0 100 102" xmlns="http://www.w3.org/2000/svg">
  <path d="M89.383 92.84H18.765c-1.358 0-2.592-.741-3.21-1.852L1.359 66.543c-.988-1.728-.37-4.074 1.358-5.062 1.728-.987 4.074-.37 5.062 1.359l13.086 22.469h68.519c2.098 0 3.703 1.605 3.703 3.703 0 2.1-1.605 3.828-3.703 3.828z"/>
  <path d="M34.198 90.988c-.494 0-.988-.124-1.358-.494-.741-.74-.741-1.852 0-2.593 3.703-3.703 5.432-7.037 5.061-9.259-.247-1.358-1.234-2.099-1.728-2.47l-24.815.865c-.988 0-1.852-.74-1.852-1.728s.74-1.852 1.729-1.852l25.308-.864c.247 0 .617 0 .864.123 1.235.617 3.58 2.346 4.074 5.309.618 3.58-1.358 7.9-6.049 12.592-.247.124-.74.37-1.234.37z"/>
  <path d="M24.074 101.358c-.494 0-.988-.123-1.234-.494-.741-.74-.741-1.852 0-2.592l11.728-12.223c.74-.74 1.852-.74 2.592 0 .741.741.741 1.852 0 2.593l-11.728 12.222c-.37.37-.864.494-1.358.494zM84.321 101.358c-.494 0-.988-.247-1.358-.617L71.235 88.519c-.741-.741-.741-1.852 0-2.593.74-.74 1.851-.74 2.592 0l11.729 12.222c.74.74.74 1.852 0 2.593-.37.494-.865.617-1.235.617zM97.778 36.05c-.988.246-1.976-.248-2.222-1.235C89.383 12.716 66.296-.37 44.198 5.925c-22.1 6.297-35.186 29.137-29.013 51.235.247.988-.247 1.976-1.234 2.223-.988.247-1.976-.247-2.223-1.235C4.938 34.074 19.012 9.012 43.21 2.222c24.074-6.79 49.26 7.408 55.926 31.482.247 1.11-.37 2.098-1.358 2.345z"/>
  <path d="M55.802 47.778c-.987.247-1.975-.247-2.222-1.235L43.086 9.136C26.42 21.728 35.68 49.012 35.802 49.383c.37.987-.123 1.975-1.11 2.345-.988.37-1.976-.123-2.346-1.11-.124-.371-11.111-32.717 10.987-46.05l2.1-1.235L57.283 45.68c.123.864-.494 1.852-1.482 2.099z"/>
  <path d="M36.173 51.358l-3.58.988c-1.358-4.815-6.297-7.655-11.112-6.297-4.814 1.358-7.654 6.297-6.296 11.111l-3.58.988c-1.852-6.79 2.099-13.827 8.889-15.679 6.79-1.852 13.827 2.099 15.679 8.889z"/>
  <path d="M55.802 47.778c-.987.247-1.975-.247-2.222-1.235-1.358-4.815-6.296-7.654-11.11-6.296-4.816 1.358-7.655 6.296-6.297 11.111.247.988-.247 1.975-1.235 2.222-.987.247-1.975-.247-2.222-1.234-1.852-6.79 2.099-13.827 8.889-15.68 6.79-1.851 13.827 2.1 15.679 8.89.123.987-.494 1.975-1.482 2.222z"/>
  <path d="M55.802 47.778c-.987.247-1.975-.247-2.222-1.235L41.728 4.198h2.47C70 4.32 77.408 37.654 77.408 37.9c.246.988-.494 1.976-1.482 2.222-.988.247-1.975-.37-2.222-1.481-.124-.247-6.297-28.519-27.16-30.74l10.493 37.407c.37 1.234-.247 2.222-1.235 2.469z"/>
  <path d="M97.778 36.05c-.988.246-1.976-.248-2.222-1.235-1.358-4.815-6.297-7.655-11.112-6.296-4.814 1.358-7.654 6.296-6.296 11.11.247.988-.247 1.976-1.234 2.223-.988.247-1.976-.247-2.223-1.235-1.851-6.79 2.1-13.827 8.89-15.679 6.79-1.852 13.826 2.099 15.678 8.89.124.987-.494 1.974-1.481 2.221z"/>
  <path d="M76.79 41.975c-.988.247-1.975-.247-2.222-1.234-1.358-4.815-6.296-7.655-11.111-6.297-4.815 1.358-7.655 6.297-6.297 11.112.247.987-.246 1.975-1.234 2.222-.988.247-1.975-.247-2.222-1.235-1.852-6.79 2.098-13.827 8.889-15.679 6.79-1.852 13.827 2.099 15.679 8.89.123.863-.494 1.85-1.482 2.221z"/>
  <path d="M68.025 91.111c-.988.247-1.976-.247-2.223-1.234L53.704 46.543c-.247-.987.247-1.975 1.234-2.222.988-.247 1.976.247 2.222 1.235l12.1 43.333c.246.988-.248 1.975-1.235 2.222z"/>
</svg>
