<svg width="100" height="103" viewBox="0 0 100 103" xmlns="http://www.w3.org/2000/svg"><path d="M92.753 55.309a28.321 28.321 0 0 0-21.387-9.762c-8.194-.022-15.992 3.55-21.388 9.762-10.33-11.892-28.282-13.09-40.088-2.685C-1.916 63.03-3.106 81.111 7.225 93.002c10.33 11.892 28.282 13.09 40.088 2.684a30.545 30.545 0 0 0 2.665-2.684c10.33 11.892 28.282 13.09 40.088 2.684C101.894 85.26 103.084 67.2 92.753 55.31zM28.634 100.1c-14.229 0-25.77-11.625-25.77-25.957s11.541-25.957 25.77-25.957c14.23 0 25.771 11.625 25.771 25.957-.022 14.332-11.542 25.935-25.77 25.957zm62.445-9.229a25.673 25.673 0 0 1-19.691 9.23 25.463 25.463 0 0 1-19.692-9.23c7.159-9.983 7.159-23.472 0-33.456 9.163-10.96 25.44-12.357 36.322-3.106 10.88 9.252 12.224 25.603 3.061 36.562zM37.203 29.374l11.872 11.869c.506.51 1.344.51 1.872 0l11.872-11.87c3.745-3.77 3.745-9.872.022-13.643l-.022-.023c-3.458-3.483-8.964-3.771-12.797-.71a9.564 9.564 0 0 0-12.82.71c-3.722 3.772-3.722 9.873 0 13.667zM44.03 15.53a6.647 6.647 0 0 1 4.846 2.019l.022.022.176.177c.506.51 1.344.51 1.872 0l.176-.177a6.918 6.918 0 0 1 9.824 0 7.157 7.157 0 0 1 2.049 4.903c0 1.864-.727 3.66-2.027 4.992L50 38.403 39.075 27.466c-2.71-2.73-2.71-7.166 0-9.895a6.972 6.972 0 0 1 4.956-2.041zM50 7.987a1.33 1.33 0 0 0 1.322-1.331V1.509A1.33 1.33 0 0 0 50 .177a1.33 1.33 0 0 0-1.322 1.332v5.147A1.33 1.33 0 0 0 50 7.986zM61.211 10.849c.573.466 1.41.355 1.85-.222l3.062-3.883a1.32 1.32 0 0 0-.22-1.863c-.573-.466-1.388-.355-1.85.222L60.99 8.985c-.44.577-.352 1.42.22 1.864zM36.96 10.65c.243.31.64.51 1.036.51a1.33 1.33 0 0 0 1.035-2.153l-3.062-3.904a1.298 1.298 0 0 0-1.85-.2 1.343 1.343 0 0 0-.22 1.864l3.061 3.882z"/></svg>
